HIERARCHY
ROOT Hips
{
    OFFSET   0.000000   0.000000   0.000000
    CHANNELS 6 Xposition Yposition Zposition Zrotation Xrotation Yrotation
    JOINT Chest
    {
        OFFSET   0.000000   8.007230   0.000000
        CHANNELS 3 Zrotation Xrotation Yrotation
        JOINT Chest2
        {
            OFFSET   0.000000  22.077100   0.000000
            CHANNELS 3 Zrotation Xrotation Yrotation
            JOINT Neck
            {
                OFFSET   0.000000  23.254800  -0.000021
                CHANNELS 3 Zrotation Xrotation Yrotation
                JOINT Head
                {
                    OFFSET   0.000000  14.370000   1.956610
                    CHANNELS 3 Zrotation Xrotation Yrotation
                    End Site
                    {
                        OFFSET   0.000000  19.566000   0.000000
                    }
                }
            }
            JOINT LeftCollar
            {
                OFFSET   3.911900  19.017000  -0.467063
                CHANNELS 3 Zrotation Xrotation Yrotation
                JOINT LeftShoulder
                {
                    OFFSET  10.383700   0.000000   0.000000
                    CHANNELS 3 Zrotation Xrotation Yrotation
                    JOINT LeftElbow
                    {
                        OFFSET  26.662100   0.001529   0.000325
                        CHANNELS 3 Zrotation Xrotation Yrotation
                        JOINT LeftWrist
                        {
                            OFFSET  28.869000  -0.000011  -0.000096
                            CHANNELS 3 Zrotation Xrotation Yrotation
                            JOINT LeftFinger0
                            {
                                OFFSET   2.044650  -2.323460   3.252850
                                CHANNELS 3 Zrotation Xrotation Yrotation
                                JOINT LeftFinger01
                                {
                                    OFFSET   3.088130   0.000000   0.000000
                                    CHANNELS 3 Zrotation Xrotation Yrotation
                                    JOINT LeftFinger02
                                    {
                                        OFFSET   2.639460   0.000000   0.000000
                                        CHANNELS 3 Zrotation Xrotation Yrotation
                                        End Site
                                        {
                                            OFFSET   2.582190   0.000000   0.000000
                                        }
                                    }
                                }
                            }
                            JOINT LeftFinger1
                            {
                                OFFSET   8.364480   0.000000   3.252850
                                CHANNELS 3 Zrotation Xrotation Yrotation
                                JOINT LeftFinger11
                                {
                                    OFFSET   4.646930   0.000000   0.000000
                                    CHANNELS 3 Zrotation Xrotation Yrotation
                                    JOINT LeftFinger12
                                    {
                                        OFFSET   2.323460   0.000000   0.000000
                                        CHANNELS 3 Zrotation Xrotation Yrotation
                                        End Site
                                        {
                                            OFFSET   2.273050   0.000000   0.000000
                                        }
                                    }
                                }
                            }
                            JOINT LeftFinger2
                            {
                                OFFSET   8.364480   0.000016   1.078090
                                CHANNELS 3 Zrotation Xrotation Yrotation
                                JOINT LeftFinger21
                                {
                                    OFFSET   5.111620   0.000000   0.000000
                                    CHANNELS 3 Zrotation Xrotation Yrotation
                                    JOINT LeftFinger22
                                    {
                                        OFFSET   2.788160   0.000017   0.000000
                                        CHANNELS 3 Zrotation Xrotation Yrotation
                                        End Site
                                        {
                                            OFFSET   2.727660   0.000000   0.000000
                                        }
                                    }
                                }
                            }
                            JOINT LeftFinger3
                            {
                                OFFSET   7.899780   0.000015  -1.078090
                                CHANNELS 3 Zrotation Xrotation Yrotation
                                JOINT LeftFinger31
                                {
                                    OFFSET   4.646920   0.000000   0.000000
                                    CHANNELS 3 Zrotation Xrotation Yrotation
                                    JOINT LeftFinger32
                                    {
                                        OFFSET   2.323470   0.000000   0.000000
                                        CHANNELS 3 Zrotation Xrotation Yrotation
                                        End Site
                                        {
                                            OFFSET   2.273050   0.000000   0.000000
                                        }
                                    }
                                }
                            }
                            JOINT LeftFinger4
                            {
                                OFFSET   7.435090   0.000000  -3.252850
                                CHANNELS 3 Zrotation Xrotation Yrotation
                                JOINT LeftFinger41
                                {
                                    OFFSET   3.717550   0.000000   0.000000
                                    CHANNELS 3 Zrotation Xrotation Yrotation
                                    JOINT LeftFinger42
                                    {
                                        OFFSET   1.858760   0.000000   0.000000
                                        CHANNELS 3 Zrotation Xrotation Yrotation
                                        End Site
                                        {
                                            OFFSET   1.818440   0.000000   0.000000
                                        }
                                    }
                                }
                            }
                        }
                    }
                }
            }
            JOINT RightCollar
            {
                OFFSET  -3.911900  19.017000  -0.467062
                CHANNELS 3 Zrotation Xrotation Yrotation
                JOINT RightShoulder
                {
                    OFFSET -10.383700   0.000015   0.000000
                    CHANNELS 3 Zrotation Xrotation Yrotation
                    JOINT RightElbow
                    {
                        OFFSET -26.662100   0.001341   0.000385
                        CHANNELS 3 Zrotation Xrotation Yrotation
                        JOINT RightWrist
                        {
                            OFFSET -28.869000   0.000025  -0.000080
                            CHANNELS 3 Zrotation Xrotation Yrotation
                            JOINT RightFinger0
                            {
                                OFFSET  -2.044650  -2.323490   3.252850
                                CHANNELS 3 Zrotation Xrotation Yrotation
                                JOINT RightFinger01
                                {
                                    OFFSET  -3.088130   0.000000   0.000000
                                    CHANNELS 3 Zrotation Xrotation Yrotation
                                    JOINT RightFinger02
                                    {
                                        OFFSET  -2.639460   0.000000   0.000000
                                        CHANNELS 3 Zrotation Xrotation Yrotation
                                        End Site
                                        {
                                            OFFSET  -2.582190   0.000000   0.000000
                                        }
                                    }
                                }
                            }
                            JOINT RightFinger1
                            {
                                OFFSET  -8.364480   0.000000   3.252850
                                CHANNELS 3 Zrotation Xrotation Yrotation
                                JOINT RightFinger11
                                {
                                    OFFSET  -4.646930   0.000000   0.000000
                                    CHANNELS 3 Zrotation Xrotation Yrotation
                                    JOINT RightFinger12
                                    {
                                        OFFSET  -2.323470   0.000000   0.000000
                                        CHANNELS 3 Zrotation Xrotation Yrotation
                                        End Site
                                        {
                                            OFFSET  -2.273050   0.000000   0.000000
                                        }
                                    }
                                }
                            }
                            JOINT RightFinger2
                            {
                                OFFSET  -8.364480   0.000000   1.078090
                                CHANNELS 3 Zrotation Xrotation Yrotation
                                JOINT RightFinger21
                                {
                                    OFFSET  -5.111610   0.000000   0.000000
                                    CHANNELS 3 Zrotation Xrotation Yrotation
                                    JOINT RightFinger22
                                    {
                                        OFFSET  -2.788160   0.000000   0.000000
                                        CHANNELS 3 Zrotation Xrotation Yrotation
                                        End Site
                                        {
                                            OFFSET  -2.727660   0.000000   0.000000
                                        }
                                    }
                                }
                            }
                            JOINT RightFinger3
                            {
                                OFFSET  -7.899780   0.000000  -1.078090
                                CHANNELS 3 Zrotation Xrotation Yrotation
                                JOINT RightFinger31
                                {
                                    OFFSET  -4.646920   0.000000   0.000000
                                    CHANNELS 3 Zrotation Xrotation Yrotation
                                    JOINT RightFinger32
                                    {
                                        OFFSET  -2.323470   0.000000   0.000000
                                        CHANNELS 3 Zrotation Xrotation Yrotation
                                        End Site
                                        {
                                            OFFSET  -2.273050   0.000000   0.000000
                                        }
                                    }
                                }
                            }
                            JOINT RightFinger4
                            {
                                OFFSET  -7.435090   0.000000  -3.252850
                                CHANNELS 3 Zrotation Xrotation Yrotation
                                JOINT RightFinger41
                                {
                                    OFFSET  -3.717550   0.000000   0.000000
                                    CHANNELS 3 Zrotation Xrotation Yrotation
                                    JOINT RightFinger42
                                    {
                                        OFFSET  -1.858770   0.000000   0.000000
                                        CHANNELS 3 Zrotation Xrotation Yrotation
                                        End Site
                                        {
                                            OFFSET  -1.818440   0.000000   0.000000
                                        }
                                    }
                                }
                            }
                        }
                    }
                }
            }
        }
    }
    JOINT LeftHip
    {
        OFFSET   9.783010   0.000000   0.000000
        CHANNELS 3 Zrotation Xrotation Yrotation
        JOINT LeftKnee
        {
            OFFSET   0.000070 -41.789100   0.000028
            CHANNELS 3 Zrotation Xrotation Yrotation
            JOINT LeftAnkle
            {
                OFFSET   0.000087 -41.133200  -0.000100
                CHANNELS 3 Zrotation Xrotation Yrotation
                JOINT LeftToe
                {
                    OFFSET   0.000000  -6.358960  14.674500
                    CHANNELS 3 Zrotation Xrotation Yrotation
                    End Site
                    {
                        OFFSET   0.000000   0.000000   3.913200
                    }
                }
            }
        }
    }
    JOINT RightHip
    {
        OFFSET  -9.783020   0.000000   0.000000
        CHANNELS 3 Zrotation Xrotation Yrotation
        JOINT RightKnee
        {
            OFFSET   0.000044 -41.789100  -0.000870
            CHANNELS 3 Zrotation Xrotation Yrotation
            JOINT RightAnkle
            {
                OFFSET  -0.000090 -41.133200  -0.000245
                CHANNELS 3 Zrotation Xrotation Yrotation
                JOINT RightToe
                {
                    OFFSET   0.000000  -6.358960  14.674500
                    CHANNELS 3 Zrotation Xrotation Yrotation
                    End Site
                    {
                        OFFSET   0.000000   0.000000   3.913200
                    }
                }
            }
        }
    }
}
MOTION
Frames: 5
Frame Time:   0.016667
 -2.407110  89.509700  -1.332840  -0.299339  -7.002950  -0.296895   0.584762   5.625570  -0.411946   1.219260  11.246400  -0.888355  -1.710080  -0.613954  -0.009819  -2.810030  -1.241830   7.740180  -6.294300   0.146942   9.199010 -75.279900   5.789330  -1.942920   0.577973   6.522020 -20.463400  10.982200  -1.674440  -0.956851  46.571700  42.474400 -59.142200 -32.472100  -0.002064   0.000000 -11.233900  -0.000861   0.000000 -34.747800   0.724468  -1.044650 -28.435400   0.011341  -0.001478 -19.904800  -0.006306   0.000000 -28.993000   0.616392  -1.111920 -43.498300  -0.002363  -0.000885 -28.969800   0.004228  -0.001330 -28.669700  -4.920480   8.891960 -43.579100   0.001883   0.001337 -29.023700  -0.001426   0.001073 -32.300700  -7.013540  10.931700 -49.458900   0.000130   0.000075 -32.939700  -0.000195   0.000452   6.962330   2.568460  10.431100  69.887000   0.772302   2.473770   3.105990  -2.634150  17.861200 -23.438500  -2.578330   4.069050 -39.373400  27.560400  67.937300  14.814600  -0.000078   0.000097   2.414400  -0.007440   0.004101  34.603700   2.723020   3.938750  28.389500   0.012018  -0.008640  19.872700   0.000000  -0.006252  29.339900  -1.006260  -1.789530  44.033300   0.015314   0.001956  29.326200   0.005287   0.001551  29.476700  -2.266950  -4.003050  44.333900  -0.000391   0.006808  29.526400  -0.002036   0.005271  38.522400  -2.868410  -3.596930  57.918600   0.003223  -0.000292  38.573800   0.009979  -0.003422   3.207960   6.223370   1.391270   1.051310   3.711580  10.560600  -3.749820  -3.039410  -0.922262  -0.000000   0.000000   0.000000   0.982360   6.873120  -1.831630  -0.380311   3.252390  -8.326860  -0.538421  -3.983630  -5.752060  -0.000000   0.000000   0.000000
 -2.426140  89.509900  -1.315390  -0.291237  -7.030910  -0.275965   0.584702   5.638890  -0.408076   1.218870  11.273100  -0.880766  -1.709880  -0.612636  -0.009843  -2.809850  -1.238980   7.757930  -6.302100   0.131817   9.198760 -75.275300   5.814840  -1.979220   0.584054   6.544120 -20.473800  10.975700  -1.687600  -0.950543  46.566200  42.471200 -59.157400 -32.479300  -0.002074  -0.000024 -11.238000  -0.000867   0.000000 -34.768800   0.724689  -1.044650 -28.452500   0.011361  -0.001480 -19.916800  -0.006312  -0.000000 -29.025100   0.616566  -1.111920 -43.546500  -0.002349  -0.000865 -29.001900   0.004228  -0.001315 -28.689100  -4.920450   8.891960 -43.608300   0.001884   0.001344 -29.043100  -0.001420   0.001077 -32.327600  -7.023340  10.935600 -49.502000   0.000133   0.000074 -32.968400  -0.000200   0.000459   6.967370   2.533010  10.463400  69.841200   0.851059   2.511570   3.084000  -2.562500  17.889700 -23.403900  -2.565480   4.069000 -39.376700  27.558300  67.931400  14.821700  -0.000075   0.000089   2.414400  -0.007443   0.004112  34.603700   2.717060   3.929970  28.388800   0.012028  -0.008646  19.872200   0.000000  -0.006252  29.338000  -1.013370  -1.802320  44.030800   0.015332   0.001963  29.324500   0.005286   0.001558  29.474100  -2.276690  -4.020570  44.331500  -0.000391   0.006814  29.524800  -0.002029   0.005275  38.525500  -2.881330  -3.612280  57.924100   0.003226  -0.000295  38.577400   0.009984  -0.003419   3.207640   6.252270   1.381870   1.056010   3.731330  10.554200  -3.764400  -3.059150  -0.930864   0.000000   0.000000   0.000000   0.988776   6.889520  -1.844670  -0.378880   3.282950  -8.326450  -0.551362  -3.983630  -5.772570   0.000000   0.000000  -0.000000
 -2.459010  89.510100  -1.285610  -0.275765  -7.080100  -0.235874   0.584701   5.660770  -0.404212   1.218740  11.317000  -0.873229  -1.709680  -0.605617  -0.009897  -2.810250  -1.224630   7.787900  -6.315800   0.108200   9.198510 -75.267500   5.859470  -2.040970   0.588840   6.576900 -20.484700  10.965100  -1.700780  -0.941339  46.566500  42.479700 -59.190500 -32.490100  -0.002100  -0.000086 -11.245000  -0.000882  -0.000000 -34.790200   0.724909  -1.044650 -28.470100   0.011410  -0.001486 -19.929100  -0.006330   0.000000 -29.057100   0.616740  -1.111920 -43.594600  -0.002315  -0.000815 -29.034000   0.004228  -0.001276 -28.711600  -4.920370   8.891960 -43.642200   0.001886   0.001363 -29.065700  -0.001402   0.001089 -32.362000  -7.038120  10.943600 -49.555600   0.000141   0.000068 -33.004000  -0.000221   0.000487   6.975310   2.477090  10.516300  69.776700   0.967257   2.587520   3.052040  -2.466540  17.918000 -23.342500  -2.519160   4.068850 -39.389300  27.551200  67.909600  14.828800  -0.000072   0.000081   2.414400  -0.007445   0.004136  34.598600   2.707710   3.917650  28.383600   0.012051  -0.008655  19.868500   0.000000  -0.006252  29.327500  -1.024750  -1.823340  44.015700   0.015376   0.001984  29.314400   0.005284   0.001575  29.463800  -2.291040  -4.047570  44.317100  -0.000388   0.006830  29.515200  -0.002013   0.005286  38.527700  -2.900360  -3.636240  57.929500   0.003228  -0.000301  38.581000   0.009997  -0.003411   3.207360   6.301330   1.364210   1.064500   3.765180  10.543800  -3.788630  -3.090270  -0.948411  -0.000000   0.000000  -0.000000   1.000640   6.932370  -1.873160  -0.377449   3.313500  -8.326050  -0.573978  -3.984390  -5.802290  -0.000000   0.000000  -0.000000
 -2.487970  89.508600  -1.260470  -0.258326  -7.126270  -0.191455   0.584508   5.678920  -0.405892   1.218640  11.353200  -0.876788  -1.709730  -0.590864  -0.009975  -2.811040  -1.195060   7.814480  -6.329060   0.089360   9.198560 -75.265200   5.897710  -2.091600   0.579687   6.597900 -20.467000  10.956800  -1.678280  -0.938926  46.601400  42.521900 -59.255400 -32.496800  -0.002137  -0.000183 -11.252300  -0.000905  -0.000076 -34.790500   0.724854  -1.044390 -28.470400   0.011488  -0.001492 -19.929300  -0.006362   0.000000 -29.049300   0.616696  -1.111660 -43.583000  -0.002270  -0.000739 -29.026200   0.004230  -0.001215 -28.713700  -4.920220   8.893270 -43.645400   0.001888   0.001392 -29.067800  -0.001373   0.001107 -32.366600  -7.045390  10.952500 -49.563400   0.000154   0.000031 -33.009200  -0.000265   0.000551   6.978690   2.436180  10.558800  69.749100   1.038310   2.669300   3.029030  -2.438470  17.902100 -23.281100  -2.429750   4.079630 -39.415400  27.541900  67.871800  14.824700  -0.000074   0.000088   2.412360  -0.007443   0.004166  34.572500   2.704550   3.914970  28.361900   0.012085  -0.008661  19.853400   0.000000  -0.006256  29.302900  -1.030320  -1.835050  43.979200   0.015441   0.002023  29.290100   0.005288   0.001599  29.440500  -2.295830  -4.059860  44.282400  -0.000379   0.006852  29.492000  -0.001989   0.005303  38.504600  -2.906850  -3.647770  57.896000   0.003226  -0.000313  38.558700   0.010018  -0.003398   3.207680   6.343570   1.343890   1.072530   3.793950  10.537400  -3.807980  -3.110200  -0.969350   0.000000   0.000000  -0.000000   1.013450   7.003950  -1.914210  -0.376306   3.306960  -8.326130  -0.595271  -3.992740  -5.815230  -0.000000   0.000000   0.000000
 -2.517810  89.505300  -1.234220  -0.240412  -7.172760  -0.143616   0.584441   5.694070  -0.409053   1.219060  11.383500  -0.883385  -1.710070  -0.568340  -0.010053  -2.814800  -1.149790   7.837860  -6.341470   0.079011   9.199000 -75.270500   5.942160  -2.146410   0.563207   6.609040 -20.429600  10.950000  -1.652660  -0.933680  46.630400  42.552500 -59.302500 -32.500300  -0.002190  -0.000305 -11.257100  -0.000934  -0.000198 -34.790900   0.724467  -1.042560 -28.470700   0.011586  -0.001501 -19.929500  -0.006405   0.000000 -29.041500   0.616389  -1.109860 -43.571300  -0.002214  -0.000644 -29.018400   0.004232  -0.001140 -28.715700  -4.920060   8.894580 -43.648600   0.001891   0.001431 -29.070000  -0.001334   0.001131 -32.368500  -7.053450  10.964100 -49.569500   0.000170   0.000000 -33.013300  -0.000315   0.000624   6.975950   2.404650  10.596300  69.738800   1.071860   2.778990   3.001380  -2.435220  17.842500 -23.223300  -2.310450   4.103340 -39.447300  27.519500  67.810100  14.820600  -0.000078   0.000094   2.410310  -0.007438   0.004205  34.531900   2.695930   3.910400  28.328700   0.012130  -0.008667  19.830100   0.000000  -0.006263  29.271400  -1.040370  -1.855320  43.932400   0.015522   0.002075  29.259000   0.005292   0.001632  29.409900  -2.303830  -4.078970  44.237900  -0.000368   0.006882  29.462400  -0.001957   0.005327  38.462700  -2.917240  -3.665800  57.834100   0.003223  -0.000326  38.517500   0.010045  -0.003382   3.208270   6.384640   1.325210   1.081590   3.824330  10.529500  -3.826950  -3.130430  -0.993813   0.000000   0.000000  -0.000000   1.026130   7.084600  -1.955260  -0.371957   3.295600  -8.326980  -0.616996  -4.001120  -5.825830   0.000000   0.000000  -0.000000
